<svg width="578" height="419" viewBox="0 0 578 419" fill="none" xmlns="http://www.w3.org/2000/svg">
<path d="M63.0859 111.887H512.102" stroke="#DED7D4" stroke-width="4.24694" stroke-miterlimit="10"/>
<path d="M512.06 419H69.0273C65.746 419 63.0859 415.819 63.0859 411.897V89.5551C63.0859 85.6326 65.746 82.453 69.0273 82.453H512.06C515.341 82.453 518 85.6326 518 89.5551V411.897C518 415.819 515.341 419 512.06 419Z" stroke="#DED7D4" stroke-width="4.24694" stroke-miterlimit="10"/>
<path d="M92.6787 97.4701C92.6787 99.7378 90.8399 101.577 88.5713 101.577C86.3027 101.577 84.4639 99.7378 84.4639 97.4701C84.4639 95.2015 86.3027 93.3627 88.5713 93.3627C90.8399 93.3627 92.6787 95.2015 92.6787 97.4701Z" fill="#F24040"/>
<path d="M108.641 97.4701C108.641 99.7378 106.802 101.577 104.533 101.577C102.265 101.577 100.426 99.7378 100.426 97.4701C100.426 95.2015 102.265 93.3627 104.533 93.3627C106.802 93.3627 108.641 95.2015 108.641 97.4701Z" fill="#F7BA59"/>
<path d="M124.603 97.4701C124.603 99.7378 122.765 101.577 120.496 101.577C118.227 101.577 116.389 99.7378 116.389 97.4701C116.389 95.2015 118.227 93.3627 120.496 93.3627C122.765 93.3627 124.603 95.2015 124.603 97.4701Z" fill="#A0B392"/>
<path d="M490.418 182.836H545.265C548.256 182.836 550.681 180.412 550.681 177.422V132.471C550.681 129.481 548.256 127.057 545.265 127.057H490.418C487.428 127.057 485.004 129.481 485.004 132.471V177.422C485.004 180.412 487.428 182.836 490.418 182.836Z" fill="#F5A623"/>
<path d="M532.824 164.221H507.151H502.515V143.896H532.824V148.977V164.221Z" stroke="white" stroke-width="3.55423" stroke-linecap="round" stroke-linejoin="round"/>
<path d="M502.516 143.896L517.67 155.838L532.823 143.896" stroke="white" stroke-width="3.55423" stroke-linecap="round" stroke-linejoin="round"/>
<path d="M81.5584 273.867H29.3626C26.0654 273.867 23.3931 271.193 23.3931 267.896V217.489C23.3931 214.192 26.0654 211.52 29.3626 211.52H81.5584C84.8556 211.52 87.5288 214.192 87.5288 217.489V267.896C87.5288 271.193 84.8556 273.867 81.5584 273.867Z" fill="#D3E3D6"/>
<path d="M73.0863 243.274C73.0863 252.793 65.3706 260.51 55.852 260.51C46.3334 260.51 38.6177 252.793 38.6177 243.274C38.6177 233.757 46.3334 226.041 55.852 226.041C65.3706 226.041 73.0863 233.757 73.0863 243.274Z" stroke="white" stroke-width="4.316" stroke-miterlimit="10"/>
<path d="M41.2998 234.141H70.4697" stroke="white" stroke-width="5.1792" stroke-miterlimit="10"/>
<path d="M38.6177 243.275H72.9137" stroke="white" stroke-width="5.1792" stroke-miterlimit="10"/>
<path d="M41.2358 252.41H70.4659" stroke="white" stroke-width="5.1792" stroke-miterlimit="10"/>
<path d="M241.708 226.297C237.075 234.141 233.981 246.762 242.218 260.51" stroke="white" stroke-width="4.316" stroke-miterlimit="10"/>
<path d="M214.733 226.297C210.101 234.141 207.007 246.762 215.243 260.51" stroke="white" stroke-width="4.316" stroke-miterlimit="10"/>
<path d="M187.758 226.297C183.126 234.141 180.032 246.762 188.268 260.51" stroke="white" stroke-width="4.316" stroke-miterlimit="10"/>
<path d="M160.783 226.297C156.15 234.141 153.056 246.762 161.293 260.51" stroke="white" stroke-width="4.316" stroke-miterlimit="10"/>
<path d="M133.808 226.297C129.175 234.141 126.081 246.762 134.318 260.51" stroke="white" stroke-width="4.316" stroke-miterlimit="10"/>
<path d="M106.833 226.297C102.2 234.141 99.1062 246.762 107.343 260.51" stroke="white" stroke-width="4.316" stroke-miterlimit="10"/>
<path d="M79.8581 226.297C75.2256 234.141 72.1316 246.762 80.368 260.51" stroke="white" stroke-width="4.316" stroke-miterlimit="10"/>
<path d="M79.8581 226.297C75.2256 234.141 72.1316 246.762 80.368 260.51" stroke="white" stroke-width="4.316" stroke-miterlimit="10"/>
<path d="M52.883 226.297C48.2505 234.141 45.1565 246.762 53.3929 260.51" stroke="white" stroke-width="4.316" stroke-miterlimit="10"/>
<path d="M25.9079 226.297C21.2754 234.141 18.1814 246.762 26.4178 260.51" stroke="white" stroke-width="4.316" stroke-miterlimit="10"/>
<path d="M247.814 226.464C252.911 235.232 254.596 248.159 247.343 260.137" stroke="white" stroke-width="4.29469" stroke-miterlimit="10"/>
<path d="M220.839 226.464C225.937 235.232 227.622 248.159 220.368 260.137" stroke="white" stroke-width="4.29469" stroke-miterlimit="10"/>
<path d="M193.864 226.464C198.962 235.232 200.647 248.159 193.393 260.137" stroke="white" stroke-width="4.29469" stroke-miterlimit="10"/>
<path d="M166.889 226.464C171.987 235.232 173.672 248.159 166.418 260.137" stroke="white" stroke-width="4.29469" stroke-miterlimit="10"/>
<path d="M139.914 226.464C145.011 235.232 146.696 248.159 139.443 260.137" stroke="white" stroke-width="4.29469" stroke-miterlimit="10"/>
<path d="M112.939 226.464C118.036 235.232 119.721 248.159 112.468 260.137" stroke="white" stroke-width="4.29469" stroke-miterlimit="10"/>
<path d="M85.9643 226.464C91.0617 235.232 92.7467 248.159 85.4932 260.137" stroke="white" stroke-width="4.29469" stroke-miterlimit="10"/>
<path d="M85.9643 226.464C91.0617 235.232 92.7467 248.159 85.4932 260.137" stroke="white" stroke-width="4.29469" stroke-miterlimit="10"/>
<path d="M58.9892 226.464C64.0866 235.232 65.7716 248.159 58.5181 260.137" stroke="white" stroke-width="4.29469" stroke-miterlimit="10"/>
<path d="M32.0141 226.464C37.1115 235.232 38.7965 248.159 31.543 260.137" stroke="white" stroke-width="4.29469" stroke-miterlimit="10"/>
<path d="M574.149 279.525H529.896C528.013 279.525 526.485 277.998 526.485 276.115C526.485 274.231 528.013 272.704 529.896 272.704H574.149C576.033 272.704 577.559 274.231 577.559 276.115C577.559 277.998 576.033 279.525 574.149 279.525Z" fill="#365359"/>
<path d="M543.155 318.979H537.748C536.327 318.979 535.175 317.826 535.175 316.405V311.329C535.175 309.908 536.327 308.757 537.748 308.757H543.155C544.576 308.757 545.728 309.908 545.728 311.329V316.405C545.728 317.826 544.576 318.979 543.155 318.979Z" fill="#F5A623"/>
<path d="M30.5875 342.607H25.1799C23.7593 342.607 22.6074 341.455 22.6074 340.035V334.958C22.6074 333.537 23.7593 332.385 25.1799 332.385H30.5875C32.0082 332.385 33.16 333.537 33.16 334.958V340.035C33.16 341.455 32.0082 342.607 30.5875 342.607Z" fill="#F7BA59"/>
<path d="M444.451 53.2921H354.46C352.964 53.2921 351.751 52.0791 351.751 50.5838V28.6118C351.751 27.1165 352.964 25.9053 354.46 25.9053H444.451C445.948 25.9053 447.16 27.1165 447.16 28.6118V50.5838C447.16 52.0791 445.948 53.2921 444.451 53.2921Z" fill="#A0B392"/>
<path d="M364.747 35.6639H428.747" stroke="white" stroke-width="2.54644" stroke-miterlimit="10"/>
<path d="M364.747 42.2323H390.814" stroke="white" stroke-width="2.54644" stroke-miterlimit="10"/>
<path d="M362.144 50.1945V60.8694L375.568 50.1945H362.144Z" fill="#A0B392"/>
<path d="M223.353 54.9223H179.789C175.557 54.9223 172.128 51.492 172.128 47.2605V6.76023C172.128 3.5529 174.728 0.952515 177.936 0.952515H223.353C226.56 0.952515 229.16 3.5529 229.16 6.76023V49.1137C229.16 52.3219 226.56 54.9223 223.353 54.9223Z" fill="#3D85C6"/>
<path d="M213.953 31.9288L210.706 28.6819C210.126 28.0435 209.373 27.6955 208.619 27.6955C207.865 27.6955 207.111 28.0426 206.532 28.6226L204.675 30.4794L204.327 30.3049C204.096 30.1889 203.922 30.1314 203.748 30.0154C202.008 28.913 200.442 27.4635 198.934 25.6077C198.239 24.7382 197.717 23.9262 197.427 23.2303C197.891 22.8247 198.297 22.3599 198.702 21.9544C198.877 21.7808 199.05 21.6064 199.225 21.4328C199.862 20.7944 200.21 20.0409 200.21 19.2865C200.21 18.533 199.862 17.7795 199.225 17.1411L197.601 15.5172C197.427 15.3437 197.253 15.1683 197.079 14.9373C196.732 14.5884 196.325 14.1838 195.977 13.8358C195.397 13.2558 194.644 12.9078 193.889 12.9078C193.136 12.9078 192.439 13.1974 191.801 13.8358L189.772 15.8652C189.018 16.6196 188.554 17.6051 188.439 18.7066C188.323 20.4464 188.786 22.0703 189.192 23.1143C190.12 25.7821 191.569 28.1595 193.715 30.7113C196.324 33.7847 199.398 36.2205 202.993 37.9604C204.327 38.5979 206.184 39.3505 208.214 39.525H208.619C210.011 39.525 211.17 39.0043 212.097 38.018L212.156 37.9604C212.446 37.6124 212.794 37.2645 213.201 36.9165C213.433 36.6845 213.721 36.3941 213.953 36.1621C215.172 34.8871 215.172 33.1463 213.953 31.9288ZM212.621 34.9437C212.389 35.1757 212.156 35.4086 211.924 35.6406C211.517 35.9885 211.17 36.3941 210.764 36.7996C210.184 37.3796 209.546 37.67 208.676 37.67H208.387C206.648 37.554 205.024 36.8571 203.864 36.2772C200.558 34.6533 197.658 32.3928 195.223 29.4939C193.251 27.1156 191.918 24.8533 190.989 22.4759C190.41 21.084 190.177 19.9825 190.293 18.881C190.351 18.2435 190.584 17.6635 191.106 17.1996L193.078 15.2277C193.252 15.0532 193.541 14.8213 193.889 14.8213C194.237 14.8213 194.468 14.9957 194.7 15.2277C195.048 15.5757 195.397 15.9227 195.745 16.2707C195.92 16.4443 196.092 16.6771 196.324 16.8507L197.948 18.4755C198.122 18.649 198.354 18.997 198.354 19.2865C198.354 19.6345 198.122 19.9249 197.948 20.0985L197.427 20.6209C196.905 21.1424 196.441 21.6064 195.977 22.0703L195.92 22.1288C195.34 22.7088 195.455 23.2303 195.571 23.5782V23.6358C195.976 24.6797 196.616 25.6077 197.485 26.7676C199.109 28.7979 200.848 30.3625 202.761 31.5799C202.993 31.7544 203.284 31.8713 203.517 31.9864C203.748 32.1032 203.922 32.1608 204.097 32.2768L204.153 32.3352C204.733 32.6248 205.313 32.5088 205.777 32.0448L207.807 30.0154C207.98 29.8409 208.271 29.609 208.619 29.609C208.909 29.609 209.198 29.8409 209.372 30.0154L212.621 33.2623C213.143 33.7847 213.143 34.3638 212.621 34.9437Z" fill="white"/>
<path d="M219.314 273.23L191.253 269.494L191.509 266.234L158.688 270.604C158.688 270.604 140.775 318.609 156.717 418.413H179.543L187.501 317.214H190.419L198.634 418.413H221.461C237.403 318.609 219.314 273.23 219.314 273.23Z" fill="#282828"/>
<path d="M217.077 136.696C213.279 132.228 210.238 127.016 207.653 119.701C204.879 111.849 195.794 115.041 195.794 115.041C195.794 115.041 188.224 105.302 176.833 108.694C165.441 112.086 161.483 120.193 161.251 129.83C161.018 139.467 153.438 140.974 147.601 152.124C137.295 171.806 154.646 188.385 186.228 183.785L186.27 183.479C189.381 184.424 193.192 184.836 197.845 184.56C235.787 182.307 232.125 154.4 217.077 136.696Z" fill="#282828"/>
<path d="M204.655 151.291C207.773 154.12 214.746 143.391 211.733 140.379C208.72 137.368 206.421 142.093 206.421 142.093L205.075 145.296L204.061 149.633L203.819 150.769L204.655 151.291Z" fill="#F3968E"/>
<path d="M210.277 144.181C210.277 144.181 207.917 143.119 205.819 146.541" stroke="#282828" stroke-width="2.14289" stroke-linecap="round" stroke-linejoin="round"/>
<path d="M167.778 150.967C164.91 154.049 157.054 143.949 159.802 140.693C162.549 137.437 165.239 141.952 165.239 141.952L166.851 145.029L168.229 149.265L168.565 150.376L167.778 150.967Z" fill="#F3968E"/>
<path d="M161.574 144.356C161.574 144.356 163.836 143.099 166.215 146.332" stroke="#282828" stroke-width="2.14289" stroke-linecap="round" stroke-linejoin="round"/>
<path d="M210.124 130.146C210.124 144.347 199.297 151.082 185.94 151.082C172.584 151.082 161.756 144.347 161.756 130.146C161.756 115.944 172.584 106.284 185.94 106.284C199.297 106.284 210.124 115.944 210.124 130.146Z" fill="#282828"/>
<path d="M195.794 187.599H175.899V161.836H195.794V187.599Z" fill="#FFB0A4"/>
<path d="M172.996 160.229C172.996 160.229 178.534 171.282 185.347 173.007C187.166 173.468 189.11 173.31 190.866 172.688C193.43 171.779 196.681 167.956 197.234 163.726L197.491 161.309C197.491 161.309 185.367 167.91 172.996 160.229Z" fill="#282828"/>
<path d="M206.838 131.134C206.838 139.852 205.605 147.375 204.376 152.715C203.172 157.942 199.784 161.596 194.996 164.536L194.125 165.072C189.06 168.184 182.515 168.256 177.372 165.258C172.185 162.233 168.553 158.246 167.435 152.637C165.402 142.434 165.181 131.134 165.181 131.134C165.181 131.134 163.246 109.125 185.712 109.553C208.176 109.98 206.838 131.134 206.838 131.134Z" fill="#FFB0A4"/>
<path d="M184.439 144.886V146.695C184.439 146.875 184.475 147.047 184.537 147.205C184.787 147.826 185.506 148.123 186.156 147.951L187.552 147.582" stroke="#282828" stroke-width="2.65434" stroke-linecap="round" stroke-linejoin="round"/>
<path d="M189.121 132.956L201.072 135.785C201.072 135.785 200.529 132.713 195.64 131.596C190.75 130.48 189.121 132.956 189.121 132.956Z" fill="#282828"/>
<path d="M182.845 132.956L170.739 135.785C170.739 135.785 171.288 132.713 176.241 131.596C181.193 130.48 182.845 132.956 182.845 132.956Z" fill="#282828"/>
<path d="M177.265 151.082H193.79C193.79 151.082 192.624 155.623 185.13 155.623C179.423 155.623 177.265 151.082 177.265 151.082Z" fill="white"/>
<path d="M165.469 138.431C165.469 138.431 174.451 126.287 172.379 113.986C172.379 113.986 165.713 117.342 163.976 126.001C162.24 134.659 165.469 138.431 165.469 138.431Z" fill="#282828"/>
<path d="M206.852 138.027C206.852 138.027 196.418 125.463 198.49 113.161C198.49 113.161 205.727 117.342 207.464 126C209.199 134.66 206.852 138.027 206.852 138.027Z" fill="#282828"/>
<path d="M166.223 118.831C166.223 118.831 176.528 132.684 208.083 130.523C208.083 130.523 204.479 110.769 189.187 108.795C189.187 108.795 171.53 106.687 166.223 118.831Z" fill="#282828"/>
<path d="M137.459 334.165C137 334.887 163.722 217.898 155.789 219.667C155.066 219.828 141.17 221.118 139.105 225.317C133.119 237.488 128.825 333.277 128.825 333.277L137.459 334.165Z" fill="#FFB0A4"/>
<path d="M128.825 333.277C128.825 333.277 124.518 353.262 140.8 355.446C141.873 355.59 142.91 354.956 143.263 353.934L143.31 353.798C143.699 352.669 143.134 351.458 142.043 350.971C139.389 349.783 135.27 346.785 137.313 339.974C137.313 339.974 139.667 339.686 140.966 344.076C141.3 345.206 142.568 345.772 143.62 345.243C144.338 344.881 144.742 344.11 144.641 343.311C144.25 340.236 142.704 332.835 136.768 330.849L128.825 333.277Z" fill="#FFB0A4"/>
<path d="M134.305 253.427C134.305 253.427 149.701 275.109 149.782 274.689C149.863 274.271 156.514 235.594 156.514 235.594L137.044 233.57L134.305 253.427Z" fill="#F3968E"/>
<path d="M177.084 183.357C177.74 183.353 139.033 184.046 131.958 232.922L154.203 236.33L158.688 273.229H220.746L233.066 205.054C233.066 205.054 224.308 190.284 198.779 183.048L177.084 183.357Z" fill="#A0B392"/>
<path d="M158.164 189.265C158.164 189.265 163.633 196.527 186.046 196.527C208.252 196.527 213.93 188.885 213.93 188.885C213.93 188.885 200.84 181.571 185.651 179.205C185.651 179.205 172.088 181.621 158.164 189.265Z" fill="#FFB0A4"/>
<path d="M178.417 140.666C178.417 141.703 177.573 142.543 176.533 142.543C175.493 142.543 174.651 141.703 174.651 140.666C174.651 139.629 175.493 138.788 176.533 138.788C177.573 138.788 178.417 139.629 178.417 140.666Z" fill="#282828"/>
<path d="M178.605 140.666C178.605 141.806 177.677 142.731 176.533 142.731C175.39 142.731 174.463 141.806 174.463 140.666C174.463 139.526 175.39 138.601 176.533 138.601C177.677 138.601 178.605 139.526 178.605 140.666Z" fill="#FFB1A5"/>
<path d="M196.267 140.666C196.267 141.703 195.425 142.543 194.384 142.543C193.344 142.543 192.501 141.703 192.501 140.666C192.501 139.629 193.344 138.788 194.384 138.788C195.425 138.788 196.267 139.629 196.267 140.666Z" fill="#282828"/>
<path d="M196.455 140.666C196.455 141.806 195.528 142.731 194.384 142.731C193.24 142.731 192.313 141.806 192.313 140.666C192.313 139.526 193.24 138.601 194.384 138.601C195.528 138.601 196.455 139.526 196.455 140.666Z" fill="#FFB1A5"/>
<path d="M432.017 225.39C429.209 220.908 413.435 221.066 412.603 220.969C408.339 220.469 415.336 254.401 424.207 284.061C425.907 289.748 432.164 292.71 437.628 290.392C437.688 290.368 437.746 290.342 437.806 290.318C442.129 288.486 444.588 283.897 443.719 279.284C439.5 256.903 435.264 230.573 432.017 225.39Z" fill="#FFB0A4"/>
<path d="M435.776 237.66L415.638 245.475L413.75 235.919L434.603 230.717L435.776 237.66Z" fill="#F3968E"/>
<path d="M440.704 260.936C440.704 260.936 430.04 269.589 430.495 269C430.949 268.411 437.976 248.293 437.976 248.293L440.704 260.936Z" fill="#F3968E"/>
<path d="M456.325 241.177L426.41 274.467C422.483 278.838 423.125 285.631 427.801 289.189C432.469 292.742 439.175 291.56 442.347 286.626L468.181 246.445L456.325 241.177Z" fill="#FFB0A4"/>
<path d="M462.703 250.777C456.935 248.425 454.164 241.843 456.517 236.074C458.869 230.304 465.453 227.536 471.222 229.887C476.99 232.24 479.76 238.823 477.408 244.592C475.055 250.361 468.472 253.13 462.703 250.777Z" fill="#FFB0A4"/>
<path d="M482.999 212.28L494.046 218.085C494.66 218.408 494.836 219.178 494.438 219.805L477.317 246.739C476.918 247.365 476.096 247.613 475.482 247.289L464.434 241.485C463.819 241.161 463.645 240.391 464.044 239.764L481.165 212.831C481.563 212.204 482.385 211.957 482.999 212.28Z" fill="#372E5F"/>
<path d="M481.946 211.701L492.993 217.507C493.608 217.83 493.783 218.601 493.384 219.227L476.263 246.16C475.864 246.788 475.043 247.034 474.428 246.711L463.381 240.906C462.766 240.583 462.591 239.812 462.991 239.185L480.111 212.253C480.509 211.625 481.331 211.379 481.946 211.701Z" fill="#251B43"/>
<path d="M480.444 214.459L490.151 219.56L476.198 241.511L466.491 236.41L480.444 214.459Z" fill="#E6E6E6"/>
<path d="M490.151 219.56L466.491 236.409L480.444 214.459L490.151 219.56Z" fill="white"/>
<path d="M473.694 228.57C468.401 225.922 461.611 225.93 456.517 236.074L460.33 239.982C463.728 239.736 466.709 236.18 467.624 234.979L475.67 234.184C475.67 234.184 478.988 231.219 473.694 228.57Z" fill="#FFB0A4"/>
<path d="M412.849 273.263L380.028 268.894L380.284 272.154L352.222 275.89C352.222 275.89 334.134 321.27 350.076 421.073H372.903L381.119 319.872H384.036L391.994 421.073H414.82C430.762 321.27 412.849 273.263 412.849 273.263Z" fill="black"/>
<path d="M370.682 319.872H394.498" stroke="#282828" stroke-width="2.66081" stroke-linecap="round" stroke-linejoin="round"/>
<path d="M390.293 180.774C389.636 180.77 432.505 186.706 439.579 235.583L417.334 238.991L412.849 275.89H350.792L338.471 207.716C338.471 207.716 352.22 188.011 377.749 180.774H390.293Z" fill="#3D85C6"/>
<path d="M417.334 238.991L419.264 217.651" stroke="#282828" stroke-width="2.66081" stroke-linecap="round" stroke-linejoin="round"/>
<path d="M394.369 181.473V164.496H374.474V181.672C373.456 181.976 371.76 182.59 369.129 183.84L384.645 193.083L400.508 183.84C400.508 183.84 397.99 182.375 394.369 181.473Z" fill="#FFB0A4"/>
<path d="M374.29 166.57C374.29 166.57 377.862 176.057 387.399 175.238C396.166 174.485 394.771 161.338 394.771 161.338L374.29 166.57Z" fill="#282828"/>
<path d="M365.612 153.952C362.493 156.781 355.52 146.052 358.534 143.04C361.547 140.028 363.846 144.753 363.846 144.753L365.191 147.956L366.205 152.294L366.447 153.429L365.612 153.952Z" fill="#F3968E"/>
<path d="M359.991 146.84C359.991 146.84 362.35 145.779 364.447 149.201" stroke="#282828" stroke-width="2.14289" stroke-linecap="round" stroke-linejoin="round"/>
<path d="M402.49 153.627C405.358 156.71 413.213 146.609 410.465 143.352C407.718 140.097 405.028 144.611 405.028 144.611L403.417 147.688L402.038 151.924L401.702 153.036L402.49 153.627Z" fill="#F3968E"/>
<path d="M408.693 147.016C408.693 147.016 406.431 145.759 404.052 148.99" stroke="#282828" stroke-width="2.14289" stroke-linecap="round" stroke-linejoin="round"/>
<path d="M360.143 132.806C360.143 147.008 370.97 153.742 384.327 153.742C397.683 153.742 408.511 147.008 408.511 132.806C408.511 118.605 397.683 108.944 384.327 108.944C370.97 108.944 360.143 118.605 360.143 132.806Z" fill="#282828"/>
<path d="M363.43 133.793C363.43 142.512 364.662 150.035 365.891 155.374C367.095 160.602 370.483 164.256 375.27 167.197L376.142 167.733C381.207 170.844 387.753 170.917 392.896 167.919C398.082 164.895 401.714 160.907 402.832 155.297C404.865 145.094 405.086 133.793 405.086 133.793C405.086 133.793 407.021 111.785 384.556 112.213C362.09 112.641 363.43 133.793 363.43 133.793Z" fill="#FFB0A4"/>
<path d="M382.896 146.354V149.399C382.896 149.579 382.929 149.753 382.993 149.911C383.243 150.533 383.961 150.832 384.61 150.659L386.007 150.289" stroke="#282828" stroke-width="2.65866" stroke-linecap="round" stroke-linejoin="round"/>
<path d="M379.324 134.544L368.158 137.162C368.158 137.162 368.666 134.32 373.234 133.288C377.802 132.255 379.324 134.544 379.324 134.544Z" fill="#282828"/>
<path d="M389.232 134.544L400.012 137.162C400.012 137.162 399.522 134.32 395.111 133.288C390.702 132.255 389.232 134.544 389.232 134.544Z" fill="#282828"/>
<path d="M376.963 154.204H391.483C391.483 154.204 385.048 162.033 376.963 154.204Z" fill="white"/>
<path d="M382.295 143.476C382.295 147.898 378.711 151.483 374.289 151.483C369.867 151.483 366.281 147.898 366.281 143.476C366.281 139.054 369.867 135.469 374.289 135.469C378.711 135.469 382.295 139.054 382.295 143.476Z" stroke="#F5A623" stroke-width="2.89604" stroke-miterlimit="10"/>
<path d="M401.966 143.476C401.966 147.898 398.382 151.483 393.96 151.483C389.538 151.483 385.952 147.898 385.952 143.476C385.952 139.054 389.538 135.469 393.96 135.469C398.382 135.469 401.966 139.054 401.966 143.476Z" stroke="#F5A623" stroke-width="2.89604" stroke-miterlimit="10"/>
<path d="M382.295 143.475C382.295 143.475 384.192 141.704 385.951 143.475" stroke="#F5A623" stroke-width="2.89604" stroke-miterlimit="10"/>
<path d="M366.282 143.475L363.759 143.412" stroke="#F5A623" stroke-width="2.89604" stroke-miterlimit="10"/>
<path d="M401.966 143.475L404.503 143.412" stroke="#F5A623" stroke-width="2.89604" stroke-miterlimit="10"/>
<path d="M404.798 141.09C404.798 141.09 395.816 128.949 397.887 116.647C397.887 116.647 404.554 120.002 406.29 128.661C408.027 137.321 404.798 141.09 404.798 141.09Z" fill="#282828"/>
<path d="M363.415 141.913C363.415 141.913 373.849 128.122 371.777 115.821C371.777 115.821 364.54 120.002 362.803 128.661C361.068 137.321 363.415 141.913 363.415 141.913Z" fill="#282828"/>
<path d="M404.044 121.491C404.044 121.491 392.511 134.117 360.956 131.956C360.956 131.956 365.788 113.428 381.08 111.455C381.08 111.455 398.738 109.346 404.044 121.491Z" fill="#282828"/>
<path d="M418.301 106.731C418.301 115.052 411.555 121.798 403.234 121.798C394.914 121.798 388.168 115.052 388.168 106.731C388.168 98.4104 394.914 91.6666 403.234 91.6666C411.555 91.6666 418.301 98.4104 418.301 106.731Z" fill="#282828"/>
<path d="M376.963 142.746C376.963 143.782 376.12 144.623 375.08 144.623C374.04 144.623 373.198 143.782 373.198 142.746C373.198 141.709 374.04 140.868 375.08 140.868C376.12 140.868 376.963 141.709 376.963 142.746Z" fill="#282828"/>
<path d="M377.152 142.746C377.152 143.886 376.224 144.811 375.08 144.811C373.937 144.811 373.01 143.886 373.01 142.746C373.01 141.605 373.937 140.68 375.08 140.68C376.224 140.68 377.152 141.605 377.152 142.746Z" fill="#FFB1A5"/>
<path d="M394.814 142.746C394.814 143.782 393.971 144.623 392.931 144.623C391.89 144.623 391.048 143.782 391.048 142.746C391.048 141.709 391.89 140.868 392.931 140.868C393.971 140.868 394.814 141.709 394.814 142.746Z" fill="#282828"/>
<path d="M395.002 142.746C395.002 143.886 394.075 144.811 392.931 144.811C391.787 144.811 390.86 143.886 390.86 142.746C390.86 141.605 391.787 140.68 392.931 140.68C394.075 140.68 395.002 141.605 395.002 142.746Z" fill="#FFB1A5"/>
<path d="M340.674 284.814C340.674 284.814 358.497 283.182 370.682 275.143L370.361 268.07L340.663 272.115L340.674 284.814Z" fill="#F3968E"/>
<path d="M142.765 213.063L185.085 262.699C185.085 262.699 209.822 288.57 194.086 302.714C180.917 311.211 172.309 299.068 172.309 299.068C172.309 299.068 140.121 254.634 125.609 220.255C125.609 220.255 124.824 215.38 132.411 212.169C140.059 208.933 142.765 213.063 142.765 213.063Z" fill="#FFB0A4"/>
<path d="M146.593 221.117C146.611 226.535 142.233 230.943 136.815 230.961C131.397 230.98 126.989 226.601 126.971 221.184C126.953 215.765 131.33 211.358 136.749 211.34C142.167 211.321 146.574 215.699 146.593 221.117Z" fill="#FFB0A4"/>
<path d="M143.669 215.011C143.669 215.011 144.502 221.43 137.358 223.677C130.845 225.727 127.111 222.247 125.248 220.828C118.533 215.715 112.595 196.512 112.595 196.512C112.595 196.512 139.993 185.361 139.744 185.775C139.494 186.191 143.669 215.011 143.669 215.011Z" fill="#FFB0A4"/>
<path d="M143.668 215.01C143.368 213.526 148.698 197.308 150.512 191.23C150.95 189.765 149.906 188.198 148.321 187.936C147.288 187.766 145.665 187.935 144.935 189.428L138.303 201.47L143.668 215.01Z" fill="#FFB0A4"/>
<path d="M142.71 197.652L137.329 174.07C137.006 172.499 135.392 171.454 133.818 171.793C132.457 172.087 131.585 173.331 131.782 174.699L134.318 192.296L142.71 197.652Z" fill="#FFB0A4"/>
<path d="M133.007 189.153L126.096 172.393C125.522 170.925 123.833 170.147 122.372 170.679C121.106 171.14 120.423 172.445 120.76 173.759L126.07 193.195L133.007 189.153Z" fill="#FFB0A4"/>
<path d="M126.183 194.326L117.564 177.907C116.773 176.382 114.884 175.714 113.367 176.421C111.942 177.085 111.346 178.735 112.002 180.203L118.937 195.737L126.183 194.326Z" fill="#FFB0A4"/>
<path d="M112.595 196.512L105.906 186.49C105.343 185.306 105.799 183.948 106.95 183.387C108.05 182.849 109.436 183.213 110.184 184.237L118.936 195.737L112.595 196.512Z" fill="#FFB0A4"/>
<path d="M136.828 198.356C136.828 198.356 127.48 200.961 131.284 213.286" stroke="#282828" stroke-width="3.30606" stroke-linecap="round" stroke-linejoin="round"/>
<path d="M175.05 271.998C167.046 281.34 165.134 293.205 174.382 301.318C177.707 304.235 182.83 306.603 187.568 305.503C203.361 301.836 227.857 268.378 227.857 268.378L222.273 210.772L179.57 265.826L175.05 271.998Z" fill="#FFB0A4"/>
<path d="M191.732 248.433C191.732 248.433 206.731 270.993 219.512 278.94L227.855 268.378L195.579 243.475L191.732 248.433Z" fill="#F3968E"/>
<path d="M257.231 181.746C257.231 181.746 213.281 191.663 189.871 242.748C189.871 242.748 204.026 264.067 226.715 273.54L241.9 254.929L257.231 181.746Z" fill="#F5A623"/>
<path d="M234.321 344.103L234.369 432.791H282.93L286.302 344.103H234.321Z" fill="#005583"/>
<path d="M287.042 344.103L290.413 432.791H338.974L339.022 344.103H287.042Z" fill="#005583"/>
<path d="M312.684 377.968H262.826V344.103H312.684V377.968Z" fill="#005583"/>
<path d="M269.791 377.968H304.181" stroke="#282828" stroke-width="3.01473" stroke-linecap="round" stroke-linejoin="round"/>
<path d="M369.485 259.039C372.475 292.069 369.32 316.135 370.193 376.912L341.412 378.118L337.123 264.353L369.485 259.039Z" fill="#FFB0A4"/>
<path d="M312.082 182.992C312.082 182.992 368.692 197.229 378.949 269.085C378.949 269.085 351.242 281.097 323.476 275.93L329.723 251.897L312.082 182.992Z" fill="#F5A623"/>
<path d="M257.231 181.589C240.063 190.395 229.268 202.074 229.268 202.074L232.655 351.389H340.851L340.499 202.844C340.499 202.844 326.862 189.499 312.08 182.992C299.527 177.466 269.437 175.329 257.231 181.589Z" fill="#F5A623"/>
<path d="M320.3 246.589C315.761 246.589 312.081 242.91 312.081 238.371V229.602H328.519V238.371C328.519 242.91 324.839 246.589 320.3 246.589Z" stroke="#282828" stroke-width="2.158" stroke-miterlimit="10"/>
<path d="M340.674 276.485L342.077 227.64" stroke="#282828" stroke-width="3.01473" stroke-linecap="round" stroke-linejoin="round"/>
<path d="M230.932 268.344L228.594 226.004" stroke="#282828" stroke-width="3.01473" stroke-linecap="round" stroke-linejoin="round"/>
<path d="M258.499 127.051L253.988 104.739C253.735 102.922 253.03 100.117 253.893 97.4816C255.322 93.1216 260.572 84.7485 269.546 88.5817L271.485 97.416C271.485 97.416 262.167 99.297 258.429 111.488L258.499 127.051Z" fill="#282828"/>
<path d="M268.884 93.1871C268.721 96.1193 266.133 108.947 257.036 113.62C257.036 113.62 249.067 96.5311 268.884 93.1871Z" fill="#282828"/>
<path d="M300.798 177.48V139.592H265.871V177.48L255.474 182.219C255.474 182.219 257.913 197.922 283.701 198.271C309.49 198.619 312.08 182.992 312.08 182.992L300.798 177.48Z" fill="#FFB0A4"/>
<path d="M269.545 88.5816C269.545 88.5816 275.956 71.6719 295.722 80.6618C307.685 86.1026 311.037 93.3976 312.462 98.5669C312.936 100.284 313.124 102.989 312.996 104.596L308.214 127.052L289.548 95.9827L271.485 97.4159L269.545 88.5816Z" fill="#282828"/>
<path d="M308.214 127.052C308.214 127.052 310.569 123.306 315.426 125.148C320.283 126.99 318.086 138.785 310.8 140.288C310.8 140.288 308.189 140.857 306.141 139.07C306.141 139.07 307.933 130.358 308.214 127.052Z" fill="#F3968E"/>
<path d="M314.462 129.308C314.462 129.308 310.394 127.951 307.506 133.942" stroke="#282828" stroke-width="3.01473" stroke-linecap="round" stroke-linejoin="round"/>
<path d="M258.499 127.052C258.499 127.052 256.143 123.306 251.287 125.148C246.431 126.99 248.628 138.785 255.913 140.288C255.913 140.288 258.524 140.857 260.573 139.07C260.573 139.07 258.781 130.358 258.499 127.052Z" fill="#F3968E"/>
<path d="M252.25 129.308C252.25 129.308 256.318 127.951 259.206 133.942" stroke="#282828" stroke-width="3.01473" stroke-linecap="round" stroke-linejoin="round"/>
<path d="M308.701 115.859C308.703 122.969 308.006 137.846 303.634 146.675C299.53 154.965 292.741 159.427 283.842 159.693C274.942 159.958 268.313 156.528 263 145.77C257.686 135.01 257.94 115.991 257.94 115.991C257.94 115.991 257.94 90.5895 283.045 90.5895C309.486 90.5895 308.701 115.859 308.701 115.859Z" fill="#FFB0A4"/>
<path d="M266.134 151.071C266.134 151.071 269.058 165.912 281.974 167.618C296.839 169.579 300.798 151.448 300.798 151.448C300.798 151.448 294.23 159.679 283.842 159.691C272.257 159.707 266.134 151.071 266.134 151.071Z" fill="#282828"/>
<path d="M281.529 126.404V132.284C281.529 132.536 281.578 132.777 281.667 133C282.015 133.871 283.017 134.288 283.924 134.047L285.872 133.528" stroke="#282828" stroke-width="3.01473" stroke-linecap="round" stroke-linejoin="round"/>
<path d="M287.408 112.226L302.773 116.197C302.773 116.197 302.075 111.886 295.788 110.32C289.502 108.754 287.408 112.226 287.408 112.226Z" fill="#282828"/>
<path d="M277.86 112.226L262.493 116.197C262.493 116.197 263.192 111.886 269.478 110.32C275.764 108.754 277.86 112.226 277.86 112.226Z" fill="#282828"/>
<path d="M274.804 138.206C274.804 138.206 277.071 139.943 283.031 139.943C288.452 139.943 291.838 138.206 291.838 138.206" stroke="#282828" stroke-width="3.01473" stroke-linecap="round" stroke-linejoin="round"/>
<path d="M280.927 124.264C280.927 129.628 276.579 133.975 271.215 133.975C265.852 133.975 261.503 129.628 261.503 124.264C261.503 118.901 265.852 114.553 271.215 114.553C276.579 114.553 280.927 118.901 280.927 124.264Z" stroke="white" stroke-width="4.21026" stroke-miterlimit="10"/>
<path d="M304.784 124.264C304.784 129.628 300.435 133.975 295.072 133.975C289.708 133.975 285.36 129.628 285.36 124.264C285.36 118.901 289.708 114.553 295.072 114.553C300.435 114.553 304.784 118.901 304.784 124.264Z" stroke="white" stroke-width="4.21026" stroke-miterlimit="10"/>
<path d="M280.927 124.264C280.927 124.264 283.227 122.118 285.362 124.264" stroke="white" stroke-width="4.21026" stroke-miterlimit="10"/>
<path d="M261.505 124.264L258.248 124.181" stroke="white" stroke-width="4.21026" stroke-miterlimit="10"/>
<path d="M304.784 124.264L308.418 124.207" stroke="white" stroke-width="4.21026" stroke-miterlimit="10"/>
<path d="M266.133 93.7672C266.133 93.7672 270.797 107.017 291.841 106.611C306.14 106.335 309.557 116.682 309.557 116.682C309.557 116.682 307.068 93.5487 306.415 93.7672C305.76 93.9857 284.656 88.1366 284.656 88.1366L266.133 93.7672Z" fill="#282828"/>
<path d="M274.116 123.597C274.116 124.858 273.092 125.883 271.829 125.883C270.568 125.883 269.544 124.858 269.544 123.597C269.544 122.335 270.568 121.311 271.829 121.311C273.092 121.311 274.116 122.335 274.116 123.597Z" fill="#282828"/>
<path d="M274.344 123.597C274.344 124.985 273.218 126.111 271.829 126.111C270.441 126.111 269.316 124.985 269.316 123.597C269.316 122.208 270.441 121.083 271.829 121.083C273.218 121.083 274.344 122.208 274.344 123.597Z" fill="#FFB1A5"/>
<path d="M295.544 123.597C295.544 124.858 294.52 125.883 293.258 125.883C291.997 125.883 290.973 124.858 290.973 123.597C290.973 122.335 291.997 121.311 293.258 121.311C294.52 121.311 295.544 122.335 295.544 123.597Z" fill="#282828"/>
<path d="M295.773 123.597C295.773 124.985 294.646 126.111 293.258 126.111C291.871 126.111 290.744 124.985 290.744 123.597C290.744 122.208 291.871 121.083 293.258 121.083C294.646 121.083 295.773 122.208 295.773 123.597Z" fill="#FFB1A5"/>
<path d="M100.535 53.2804H8.82031" stroke="#365359" stroke-width="17.264" stroke-linecap="round"/>
</svg>
