<svg width="23" height="23" viewBox="0 0 23 23" fill="none" xmlns="http://www.w3.org/2000/svg">
<g clip-path="url(#clip0_840_413)">
<path d="M1.43751 20.125H21.5625C22.3564 20.125 23 19.4814 23 18.6875C23 17.8936 22.3564 17.25 21.5625 17.25H1.43746C0.643566 17.25 -4.95911e-05 17.8936 -4.95911e-05 18.6875C0 19.4814 0.643568 20.125 1.43751 20.125Z" fill="#000"/>
<path d="M1.43751 12.9375H21.5625C22.3564 12.9375 23 12.2939 23 11.5C23 10.7061 22.3564 10.0625 21.5625 10.0625H1.43746C0.643566 10.0625 -4.95911e-05 10.7061 -4.95911e-05 11.5C-4.95911e-05 12.294 0.643568 12.9375 1.43751 12.9375Z" fill="#000"/>
<path d="M1.43751 5.75002H21.5625C22.3564 5.75002 23 5.10645 23 4.31251C23 3.51857 22.3564 2.875 21.5625 2.875H1.43746C0.643566 2.875 -4.95911e-05 3.51857 -4.95911e-05 4.31251C-4.95911e-05 5.10645 0.643568 5.75002 1.43751 5.75002Z" fill="#000"/>
</g>
<defs>
<clipPath id="clip0_840_413">
<rect width="23" height="23" fill="white" transform="matrix(-1 0 0 1 23 0)"/>
</clipPath>
</defs>
</svg>
