<svg width="29" height="27" viewBox="0 0 29 27" fill="none" xmlns="http://www.w3.org/2000/svg">
<path d="M14.5537 17.5541C16.9009 17.5541 18.8037 15.6829 18.8037 13.3746C18.8037 11.0663 16.9009 9.19507 14.5537 9.19507C12.2065 9.19507 10.3037 11.0663 10.3037 13.3746C10.3037 15.6829 12.2065 17.5541 14.5537 17.5541Z" stroke="white" stroke-width="1.5" stroke-linecap="round" stroke-linejoin="round"/>
<path d="M19.2288 3.76172H9.87881C7.06216 3.76172 4.77881 6.0072 4.77881 8.77714V17.9721C4.77881 20.742 7.06216 22.9875 9.87881 22.9875H19.2288C22.0455 22.9875 24.3288 20.742 24.3288 17.9721V8.77714C24.3288 6.0072 22.0455 3.76172 19.2288 3.76172Z" stroke="white" stroke-width="1.5" stroke-linecap="round" stroke-linejoin="round"/>
<path d="M20.0786 8.98612C20.6654 8.98612 21.1411 8.51831 21.1411 7.94124C21.1411 7.36417 20.6654 6.89636 20.0786 6.89636C19.4918 6.89636 19.0161 7.36417 19.0161 7.94124C19.0161 8.51831 19.4918 8.98612 20.0786 8.98612Z" fill="white"/>
</svg>
