<svg width="82" height="88" viewBox="0 0 82 88" fill="none" xmlns="http://www.w3.org/2000/svg">
<path d="M11.6387 39.9956C11.6387 24.5326 24.9349 11.949 41.3967 11.949C57.8597 11.949 71.1547 24.5326 71.1547 39.9956C71.1547 55.4586 57.8597 68.0422 41.3967 68.0422C24.9349 68.0422 11.6387 55.4586 11.6387 39.9956Z" fill="#F0F2F2" stroke="#D3E3D6"/>
<path d="M31.4999 38.8059C31.2526 38.6017 30.8823 38.6307 30.6658 38.864C29.3973 40.2637 27.6971 40.9636 26.3057 40.6143C25.1628 40.3218 24.3274 39.2725 24.0186 37.6975C23.9571 37.4352 23.6778 37.2599 23.3998 37.2599C23.1218 37.2599 22.8745 37.4642 22.8437 37.7265C22.1941 42.1011 18.5157 47.323 16.7527 47.8767C16.5361 47.9347 16.4746 47.9057 16.4746 47.8767C16.3196 47.7606 15.269 46.3886 18.5464 37.2007C18.6387 36.9094 18.4849 36.589 18.1749 36.5008C17.8661 36.3848 17.5265 36.56 17.4023 36.8513C13.816 46.9725 15.1767 48.2562 15.6085 48.6648C15.7943 48.8098 16.1044 49.0431 16.5669 49.0431C16.7219 49.0431 16.9077 49.0141 17.1242 48.9271C18.2684 48.5765 19.8136 47.0305 21.205 44.8438C22.2556 43.2095 23.0603 41.4592 23.5548 39.8262C24.1416 40.7883 24.977 41.4302 25.9969 41.6937C27.8214 42.1301 29.9854 41.3142 31.5626 39.5929C31.7792 39.3596 31.7471 39.0102 31.4999 38.8059Z" fill="#365359"/>
<path d="M66.9294 24.4843C66.7743 23.5511 66.3733 22.9673 65.7237 22.763C65.0126 22.5007 64.1157 22.821 63.0651 23.7252C62.8178 23.9585 62.7871 24.309 63.0036 24.5423C63.2189 24.7756 63.5904 24.7756 63.8377 24.5713C64.8576 23.7252 65.2599 23.7844 65.3521 23.8134C65.5379 23.8714 65.693 24.1918 65.7852 24.6886C66.6206 29.3847 60.623 46.4479 53.3571 51.9019C52.646 52.4567 51.6261 53.0394 50.9458 52.719C49.152 51.8729 49.2455 45.777 49.307 41.7227C49.3685 37.1136 49.3378 35.072 48.1629 34.7807C47.421 34.5764 46.6792 35.2183 45.5658 37.0556C41.3928 44.0847 38.0218 49.3647 35.5797 52.7771C33.0134 56.3647 31.9935 57.1516 31.654 57.2979C31.4375 56.569 31.5912 52.2815 41.4543 28.0127C43.8348 22.1791 45.257 19.7301 45.9066 18.971C45.9374 19.2623 45.9374 19.7301 45.9066 20.5461C45.8746 20.8374 46.1219 21.1009 46.4319 21.1299C46.7715 21.1589 47.0495 20.9256 47.0802 20.6041C47.2045 18.971 47.1123 17.8336 46.2461 17.6583C45.6593 17.5132 44.5459 17.2799 40.3409 27.6344C38.1153 33.1174 34.9929 40.9636 32.8904 47.2058C29.6437 56.8023 30.2318 57.9978 31.0966 58.3773C31.2517 58.4354 31.3747 58.4934 31.5297 58.4934C32.3651 58.4934 33.5707 57.5022 36.1358 54.0015C38.6406 50.5892 42.1654 45.0771 46.6177 37.6092C47.266 36.5008 47.6683 36.0934 47.8541 35.9472C48.1936 36.6761 48.1321 39.5638 48.1014 41.7227C48.0079 47.8766 48.1321 52.6598 50.4205 53.7102C51.4096 54.1768 52.646 53.8565 54.0989 52.7771C61.7967 47.0015 67.857 29.5007 66.9294 24.4843Z" fill="#365359"/>
<path d="M56.5778 66.2395C55.5387 67.0373 55.8346 68.9858 56.1152 72.1577C56.2036 73.1827 55.9692 74.1389 55.3593 74.3625C54.7276 74.5934 54.4253 74.0071 54.3509 73.3483C54.1114 71.2064 54.014 69.1986 53.9653 68.182C53.7488 67.7734 52.5444 68.1095 52.4931 68.4649C52.5662 69.5999 52.6597 71.598 52.7776 72.9942C52.8903 74.3468 52.5188 75.3888 51.9832 75.5846C51.3554 75.8251 51.0902 75.0286 51.0159 74.2187C50.7673 71.453 50.7558 70.8885 50.6494 69.2204C50.5315 68.9024 49.3618 69.2615 49.2042 69.6555C48.5443 71.4058 45.8819 71.8797 46.1868 73.3713C46.3675 74.1993 47.2029 74.6139 48.2484 74.1631C48.4815 74.0422 48.3919 73.4946 48.2202 73.4644C47.8358 73.4886 47.6385 73.2468 47.5924 72.9265C47.4809 72.1432 48.8544 71.8615 49.2439 70.8026C49.3361 72.0465 49.3835 73.271 49.4937 74.2876C49.709 76.102 50.4316 77.0811 51.9448 76.5395C52.8544 76.2071 53.4259 75.4407 53.5361 74.3903C53.8244 75.0624 54.5239 75.5967 55.6155 75.1978C57.3286 74.5716 57.7104 73.2238 57.5323 71.4421C57.3414 69.6894 57.1377 67.603 57.7885 66.8197C57.8757 66.4619 57.0185 65.9627 56.5778 66.2395Z" fill="#F7BA59"/>
<path d="M60.5776 66.6898C61.0453 66.4166 61.1772 65.9585 60.994 65.5559C60.8108 65.1534 60.3854 65.0192 59.9703 65.2489C59.5411 65.4991 59.3989 65.9645 59.5782 66.3815C59.7397 66.7708 60.1971 66.9122 60.5776 66.6898ZM62.8006 71.6446C63.8371 71.0015 63.9268 69.5739 63.8243 68.5126C63.8064 68.3833 63.2849 68.37 63.3105 68.5332C63.4438 69.4361 63.2208 70.3935 62.8211 70.6268C62.652 70.738 62.4867 70.5289 62.3201 70.13C62.0728 69.4845 61.8576 68.642 61.4399 67.2434C61.1529 67.0536 60.1663 67.5033 60.1036 67.82C60.4546 69.0155 60.7416 70.0067 61.1004 71.0075C61.3951 71.8283 61.9101 72.2018 62.8006 71.6446Z" fill="#F7BA59"/>
<path d="M67.7494 68.4972C68.6655 67.8276 68.7821 66.6986 68.4387 65.2867C68.4105 65.1441 67.8968 65.1852 67.9326 65.3363C68.2043 66.5547 67.8647 67.3682 67.4278 67.6668C66.9858 67.9424 66.5604 67.3767 66.1427 66.4798C65.9339 66.0579 65.725 65.5285 65.5085 64.9905L66.3042 64.4212C66.4028 64.2568 66.1607 63.7225 65.8583 63.7213L65.1715 64.2121C64.8602 63.43 64.5873 62.7144 64.3451 62.0181C64.0709 61.7655 63.0229 62.3784 63.019 62.6806C63.1894 63.1967 63.5649 64.2193 63.9095 65.115L63.57 65.3568C63.4316 65.5236 63.7212 66.1183 63.98 66.0821L64.2362 65.8995C65.087 67.8191 66.0748 69.6939 67.7494 68.4972Z" fill="#F7BA59"/>
<path d="M66.9624 59.4452C67.7606 61.0516 69.3635 63.8959 70.655 66.0161C70.8907 66.4186 71.9849 65.257 71.8581 65.0551C71.3699 64.2815 70.9599 63.601 70.4013 62.6496C70.3462 62.1129 70.4231 61.517 70.637 61.3055C70.8856 61.0335 71.1085 61.268 71.2584 61.5533C71.4301 61.8627 71.9798 62.8829 72.2886 63.2939C72.7088 63.8294 73.2546 64.1449 73.9747 63.4136C74.7857 62.5844 74.5038 61.2015 74.1733 60.2079C74.1348 60.0774 73.6211 60.1837 73.6749 60.33C74.0093 61.1399 74.0721 62.1057 73.7838 62.3837C73.402 62.7766 72.8831 61.4735 72.3014 60.4376C71.8619 59.6337 71.2418 59.34 70.5486 59.9722C70.0528 60.4231 69.9477 61.2861 69.9298 61.8458C69.2533 60.6854 68.523 59.3485 68.2116 58.6534C68.0207 58.4056 67.0175 59.0777 66.9624 59.4452Z" fill="#F7BA59"/>
<path d="M8.12259 16.8789C7.76512 17.1375 7.73309 17.9365 8.05724 18.0901C8.67737 18.078 9.27571 18.269 9.73824 18.6074C10.5057 19.1405 10.9964 19.9383 11.113 20.805C11.2706 21.8506 11.2911 22.7983 11.5999 23.8185C10.2674 22.6653 8.6889 21.4577 7.70874 20.1232C7.43712 19.9939 6.73243 20.6575 6.82212 21.2027C7.07453 22.8938 5.26412 24.3371 6.24299 25.5325C6.8644 26.2602 7.95346 26.0306 8.48646 25.2412C8.66456 24.9874 8.23149 24.5075 8.07646 24.626C7.75615 24.8568 7.46787 24.7299 7.24365 24.4555C6.76959 23.8487 7.67671 22.814 7.47043 21.8276C9.26034 23.8209 10.5096 24.4047 12.1022 26.0354C12.5442 26.2759 13.1733 25.4757 13.0759 25.1167C12.402 23.8149 12.6095 22.0766 12.4032 20.5971C12.2123 19.3617 11.5077 18.2025 10.5096 17.5268C9.8164 17.0614 9.01049 16.7882 8.12259 16.8789Z" fill="#F7BA59"/>
<path d="M14.7278 15.9551C15.1314 15.601 15.166 15.1271 14.9034 14.7657C14.6407 14.4043 14.1961 14.3499 13.8361 14.6521C13.4658 14.9772 13.4235 15.4583 13.6849 15.8343C13.9232 16.1872 14.3998 16.2428 14.7278 15.9551ZM17.9271 20.4083C18.8112 19.5887 18.6062 18.1721 18.2884 17.1494C18.2436 17.0249 17.7298 17.1071 17.7888 17.2618C18.1039 18.1237 18.0834 19.104 17.7388 19.4062C17.5953 19.5464 17.3903 19.3712 17.1443 19.0097C16.7689 18.4223 16.3858 17.6354 15.6875 16.3395C15.3685 16.2066 14.4908 16.8279 14.4947 17.1494C15.0866 18.2579 15.5709 19.179 16.1283 20.094C16.5869 20.8459 17.1686 21.1179 17.9271 20.4083Z" fill="#F7BA59"/>
<path d="M22.068 17.0754C22.6535 16.6753 23.0443 16.1144 23.2032 15.4714C23.9527 15.1196 24.7496 14.4403 24.4306 12.7879C24.405 12.644 23.8784 12.696 23.9194 12.8423C24.1628 13.8794 23.8194 14.4475 23.3133 14.7667C23.2813 13.2109 22.1525 11.6299 20.7265 12.2826C20.2166 12.5244 19.804 13.02 19.6118 13.5264C19.2185 12.4978 18.87 11.5452 18.5663 10.577C18.3408 10.357 17.3632 10.8369 17.2095 11.2092C17.5759 12.4434 18.6188 15.7953 19.8335 16.824C20.419 17.4405 21.1314 17.7028 22.068 17.0754ZM21.5427 16.3925C20.7483 16.7611 20.2076 15.2985 19.9501 14.3919C20.0667 13.8975 20.2896 13.5047 20.5728 13.3379C21.2826 12.9329 21.7874 14.2191 21.9411 14.8621C21.6426 15.0265 21.6746 15.5125 22.0193 15.6648C21.9937 15.9633 21.8899 16.2353 21.5427 16.3925Z" fill="#F7BA59"/>
<path d="M26.9671 8.66926C25.6346 9.27969 25.0068 10.6674 25.5065 12.0575C25.91 13.2034 27.044 13.89 28.7019 13.1188C29.7897 12.6051 30.6942 11.6682 30.634 9.6931C30.6263 9.56255 30.1113 9.52266 30.1202 9.67738C30.1805 11.0917 29.3387 11.8858 28.6711 12.1554C27.928 12.4733 27.3617 12.3391 27.0568 11.7686C28.338 11.4156 29.1068 10.6069 29.0786 9.71606C29.076 8.80102 28.2035 8.09509 26.9671 8.66926ZM27.2669 9.51178C27.5577 9.38002 27.7269 9.6387 27.7589 9.95299C27.814 10.4027 27.5372 10.9309 26.8197 11.2005C26.6186 10.4438 26.8185 9.68464 27.2669 9.51178Z" fill="#F7BA59"/>
</svg>
