<svg width="196" height="164" viewBox="0 0 196 164" fill="none" xmlns="http://www.w3.org/2000/svg">
<path d="M157.089 12.2782C157.089 12.2782 118.054 7.37183 97.1342 37.988C83.0835 58.5448 84.964 88.1737 102.096 107.092C106.934 112.431 113.392 117.386 119.112 118.991C121.529 119.676 124.008 119.288 124.947 117.156C125.46 115.78 125.508 114.061 125.092 112.261C124.076 107.115 120.859 101.906 117.082 97.9448C107.092 87.4599 95.2551 84.0086 85.1165 84.6637C71.9263 85.5233 60.3068 92.1469 51.8725 101.546C42.4436 112.088 36.5738 126.714 33.1926 142.762C36.7923 142.362 67.6422 124.928 67.6422 124.928L33.1926 142.762L29.6276 96.5653" stroke="#F7BA59" stroke-width="7" stroke-linecap="round" stroke-linejoin="round"/>
</svg>
