<svg width="183" height="174" viewBox="0 0 183 174" fill="none" xmlns="http://www.w3.org/2000/svg">
<path d="M9.77563 45.9382C9.77563 45.9382 12.6782 81.6477 47.313 94.9728C70.5688 103.924 99.6743 97.0644 115.081 78.4608C119.429 73.2077 123.071 66.5751 123.528 61.1881C123.727 58.9097 122.847 56.7644 120.538 56.2985C119.066 56.0818 117.347 56.3393 115.639 57.025C110.721 58.8318 106.18 62.6149 102.991 66.6799C94.5513 77.4323 93.4779 88.6044 96.1515 97.5419C99.6373 109.168 108.545 118.385 119.579 124.272C131.949 130.847 147.672 133.531 164.313 133.744C163.197 130.6 139.699 106.104 139.699 106.104L164.313 133.744L119.059 145.004" stroke="#F7BA59" stroke-width="5" stroke-linecap="round" stroke-linejoin="round"/>
</svg>
