<svg width="210" height="179" viewBox="0 0 210 179" fill="none" xmlns="http://www.w3.org/2000/svg">
<path class="line" d="M169.862 24.6791C169.862 24.6791 131.393 16.4375 107.92 45.1433C92.1555 64.417 91.4836 94.0979 106.927 114.418C111.288 120.153 117.297 125.644 122.858 127.735C125.208 128.625 127.71 128.452 128.829 126.408C129.458 125.081 129.654 123.373 129.394 121.544C128.824 116.33 126.066 110.863 122.643 106.592C113.591 95.2878 102.094 90.8324 91.9371 90.614C78.7218 90.3374 66.5762 95.9382 57.3657 104.578C47.066 114.271 39.9614 128.339 35.214 144.036C38.8348 143.947 71.0683 129.228 71.0683 129.228L35.214 144.036L35.6309 97.7047" stroke="#F7BA59" stroke-width="5" stroke-linecap="round" stroke-linejoin="round"/>


<style>
<!-- alternate -->
    .line {
            animation: dash 4s ease-in-out infinite;
            stroke-dasharray: 500;
            stroke-dashoffset: 500;
        }

        @keyframes dash {
            from {
                stroke-dashoffset: 1000;
            }

            to {
                stroke-dashoffset: 0;
            }
        }
</style>

</svg>
