<svg width="183" height="175" viewBox="0 0 183 175" fill="none" xmlns="http://www.w3.org/2000/svg">
<path d="M9.77563 46.79C9.77563 46.79 12.6782 82.4995 47.313 95.8246C70.5688 104.775 99.6743 97.9162 115.081 79.3126C119.429 74.0595 123.071 67.4269 123.528 62.0399C123.727 59.7615 122.847 57.6162 120.538 57.1504C119.066 56.9336 117.347 57.1911 115.639 57.8768C110.721 59.6836 106.18 63.4667 102.991 67.5317C94.5513 78.2841 93.4779 89.4562 96.1515 98.3938C99.6373 110.02 108.545 119.236 119.579 125.123C131.949 131.699 147.672 134.382 164.313 134.596C163.197 131.452 139.699 106.956 139.699 106.956L164.313 134.596L119.059 145.855" stroke="#F7BA59" stroke-width="7" stroke-linecap="round" stroke-linejoin="round"/>
</svg>
