<svg width="25" height="24" viewBox="0 0 25 24" fill="none" xmlns="http://www.w3.org/2000/svg">
<path d="M12.8531 8.04523C12.8531 6.03384 14.573 4.36072 16.6183 4.38815C17.3346 4.39628 18.0332 4.60768 18.6303 4.99694C19.2273 5.3862 19.6973 5.93674 19.9838 6.5824H23.2656L20.2627 9.53549C20.0689 12.5019 18.7336 15.2844 16.5283 17.3173C14.323 19.3501 11.4132 20.4808 8.39059 20.4793C5.41559 20.4793 4.67184 19.3822 4.67184 19.3822C4.67184 19.3822 7.64684 18.2851 9.13434 16.0908C9.13434 16.0908 3.18434 13.1651 4.67184 5.11957C4.67184 5.11957 8.39059 8.77665 12.8531 9.50806V8.04523Z" stroke="white" stroke-width="1.5" stroke-linecap="round" stroke-linejoin="round"/>
</svg>
